<svg width="1080" height="11" viewBox="0 0 1080 11" fill="none" xmlns="http://www.w3.org/2000/svg">
<path d="M1080 11C1073.47 11 1070.19 8.60218 1067.25 6.4502L1067.17 6.39062C1064.13 4.16877 1061.41 2.22082 1055.94 2.2207C1050.48 2.2207 1047.74 4.16971 1044.7 6.3916L1044.61 6.45703C1041.66 8.60703 1038.38 11 1031.89 11C1025.38 10.9999 1022.11 8.60212 1019.16 6.4502L1019.08 6.39062C1016.04 4.16867 1013.32 2.2207 1007.88 2.2207C1002.44 2.22073 999.715 4.16865 996.676 6.39062L996.595 6.4502C993.653 8.60214 990.375 11 983.873 11C977.37 11 974.092 8.60213 971.15 6.4502L971.069 6.39062C968.03 4.16865 965.307 2.22075 959.866 2.2207C954.425 2.2207 951.702 4.16869 948.663 6.39062L948.582 6.4502C945.64 8.60215 942.362 10.9999 935.859 11C929.357 11 926.079 8.6022 923.137 6.4502L923.056 6.39062C920.017 4.16882 917.294 2.22082 911.854 2.2207C906.413 2.2207 903.688 4.16876 900.649 6.39062L900.568 6.4502C897.627 8.6022 894.349 11 887.846 11C881.343 10.9999 878.065 8.60215 875.124 6.4502L875.043 6.39062C872.004 4.16869 869.28 2.2207 863.839 2.2207C858.398 2.22073 855.675 4.16865 852.636 6.39062L852.555 6.4502C849.613 8.60214 846.335 11 839.833 11C833.33 11 830.052 8.60213 827.11 6.4502L827.029 6.39062C823.99 4.16865 821.267 2.22075 815.826 2.2207C810.385 2.2207 807.661 4.16869 804.622 6.39062L804.541 6.4502C801.6 8.60214 798.322 10.9999 791.819 11C785.316 11 782.038 8.6022 779.097 6.4502L779.016 6.39062C775.977 4.16882 773.253 2.22082 767.812 2.2207C762.373 2.2207 759.648 4.16875 756.609 6.39062L756.528 6.4502C753.586 8.6022 750.309 11 743.806 11C737.303 10.9999 734.025 8.60214 731.083 6.4502L731.003 6.39062C727.964 4.16869 725.24 2.2207 719.799 2.2207C714.358 2.22075 711.635 4.16865 708.596 6.39062L708.515 6.4502C705.573 8.60213 702.295 11 695.792 11C689.289 11 686.012 8.60214 683.07 6.4502L682.989 6.39062C679.95 4.16865 677.227 2.22073 671.786 2.2207C666.345 2.2207 663.621 4.16869 660.582 6.39062L660.501 6.4502C657.56 8.60215 654.282 10.9999 647.779 11C641.276 11 637.998 8.6022 635.057 6.4502L634.976 6.39062C631.937 4.16883 629.213 2.22082 623.772 2.2207C618.332 2.2207 615.608 4.16875 612.569 6.39062L612.488 6.4502C609.546 8.6022 606.268 11 599.766 11C593.263 10.9999 589.985 8.60215 587.043 6.4502L586.962 6.39062C583.923 4.16869 581.2 2.2207 575.759 2.2207C570.318 2.22075 567.595 4.16865 564.555 6.39062L564.474 6.4502C561.533 8.60213 558.255 11 551.752 11C545.249 11 541.971 8.60214 539.03 6.4502L538.949 6.39062C535.91 4.16865 533.186 2.22073 527.745 2.2207C522.305 2.2207 519.581 4.16868 516.542 6.39062L516.461 6.4502C513.52 8.60214 510.242 10.9999 503.739 11C497.236 11 493.958 8.6022 491.016 6.4502L490.936 6.39062C487.896 4.16883 485.173 2.22081 479.732 2.2207C474.292 2.2207 471.568 4.16874 468.529 6.39062L468.448 6.4502C465.506 8.6022 462.228 11 455.725 11C449.217 10.9999 445.927 8.59827 442.976 6.44531L442.904 6.3916C439.857 4.1676 437.134 2.2207 431.719 2.2207C426.305 2.22076 423.594 4.16666 420.56 6.39062L420.488 6.44434C417.549 8.59734 414.272 11 407.762 11C401.26 10.9999 397.982 8.60214 395.04 6.4502L394.959 6.39062C391.92 4.16868 389.196 2.2207 383.756 2.2207C378.315 2.22074 375.591 4.16865 372.552 6.39062L372.471 6.4502C369.53 8.60214 366.252 11 359.749 11C353.241 11 349.95 8.59829 347 6.44531L346.927 6.3916C343.88 4.16773 341.158 2.22075 335.742 2.2207C330.327 2.2207 327.604 4.16777 324.564 6.39062L324.482 6.45117C321.542 8.60216 318.263 11 311.786 11C305.313 11 302.048 8.606 299.116 6.45703L299.026 6.39062C295.994 4.16864 293.27 2.22072 287.829 2.2207C282.388 2.2207 279.665 4.16867 276.626 6.39062L276.545 6.4502C273.603 8.60214 270.325 10.9999 263.823 11C257.32 11 254.042 8.6022 251.1 6.4502L251.019 6.39062C247.98 4.16882 245.257 2.2208 239.816 2.2207C234.376 2.2207 231.651 4.16871 228.619 6.39062L228.529 6.45703C225.597 8.60599 222.332 10.9999 215.859 11C209.388 11 206.121 8.60598 203.19 6.45703L203.099 6.39062C200.067 4.16879 197.344 2.22078 191.903 2.2207C186.461 2.2207 183.725 4.1686 180.68 6.3916L180.589 6.45801C177.646 8.60694 174.367 10.9999 167.896 11C161.424 11 158.158 8.60603 155.227 6.45703L155.136 6.39062C152.104 4.16879 149.38 2.22081 143.94 2.2207C138.5 2.2207 135.789 4.16765 132.763 6.38965L132.682 6.44922C129.753 8.60111 126.487 10.9999 119.983 11C113.48 11 110.203 8.6022 107.261 6.4502L107.18 6.39062C104.141 4.16874 101.417 2.2207 95.9766 2.2207C90.5359 2.22071 87.8124 4.16875 84.7734 6.39062L84.6924 6.4502C81.7508 8.6022 78.4724 11 71.9697 11C65.4617 11 62.1712 8.59829 59.2207 6.44531L59.1484 6.3916C56.1015 4.16765 53.3781 2.2207 47.9629 2.2207C42.5492 2.22078 39.8387 4.1668 36.8047 6.39062L36.7324 6.44434C33.7941 8.59732 30.5161 11 24.0068 11C17.504 11 14.2258 8.6022 11.2842 6.4502C11.2572 6.43121 11.2301 6.41061 11.2031 6.39062C8.16425 4.16873 5.44066 2.2207 0 2.2207V0H1080V11Z" fill="#feeb1a"/>
</svg>
