<svg width="1080" height="11" viewBox="0 0 1080 11" xmlns="http://www.w3.org/2000/svg">
<path d="M1055.94 0C1062.47 0.000119524 1065.75 2.39812 1068.69 4.55078L1068.77 4.6084C1071.81 6.83025 1074.53 8.77832 1080 8.77832V11H0V0.548828C6.50276 0.548828 9.78107 2.39803 12.7227 4.5498C12.7495 4.56948 12.7768 4.58877 12.8037 4.6084C15.8427 6.831 18.566 8.23047 24.0068 8.23047C29.4473 8.23045 32.1711 6.83154 35.2031 4.60938L35.2939 4.54297C38.2253 2.39413 41.4909 7.6193e-05 47.9629 0C54.4339 0 57.7127 2.39318 60.6562 4.54199L60.7471 4.6084C63.7919 6.83064 66.5281 8.77828 71.9697 8.77832C77.4105 8.77832 80.1338 6.83101 83.1729 4.6084L83.2539 4.5498C86.1955 2.39804 89.4738 9.3778e-06 95.9766 0C102.479 0 105.757 2.39803 108.699 4.5498L108.78 4.6084C111.819 6.83104 114.542 8.77832 119.983 8.77832C125.423 8.77823 128.134 6.8319 131.16 4.60938L131.241 4.55078C134.17 2.39892 137.436 0 143.94 0C150.449 0.000105133 153.727 2.4029 156.665 4.55664L156.737 4.60938C159.771 6.83302 162.483 8.77832 167.896 8.77832C173.312 8.7782 176.034 6.83211 179.081 4.6084L179.154 4.55566C182.104 2.40197 185.395 0 191.903 0C198.412 7.88508e-05 201.69 2.40288 204.628 4.55664L204.7 4.60938C207.735 6.83304 210.445 8.77832 215.859 8.77832C221.273 8.77823 223.984 6.83295 227.018 4.60938L227.09 4.55664C230.029 2.40284 233.306 0 239.816 0C246.319 0.000101271 249.597 2.39808 252.538 4.5498L252.619 4.6084C255.658 6.83104 258.382 8.77832 263.823 8.77832C269.263 8.77826 271.987 6.83101 275.026 4.6084L275.107 4.5498C278.048 2.39807 281.326 0 287.829 0C294.339 2.25254e-05 297.616 2.40287 300.555 4.55664L300.627 4.60938C303.661 6.8331 306.372 8.77832 311.786 8.77832C317.201 8.77829 319.924 6.83176 322.964 4.6084L323.046 4.54883C325.986 2.39799 329.264 0 335.742 0C342.213 4.51426e-05 345.491 2.39325 348.435 4.54199L348.526 4.6084C351.571 6.83061 354.307 8.77832 359.749 8.77832C365.19 8.77831 367.913 6.83103 370.952 4.6084L371.033 4.5498C373.975 2.39806 377.253 3.75095e-05 383.756 0C390.258 0 393.536 2.39807 396.478 4.5498L396.559 4.6084C399.598 6.831 402.321 8.77825 407.762 8.77832C413.203 8.77832 415.927 6.83159 418.959 4.60938L419.049 4.54297C421.981 2.3941 425.246 6.01973e-05 431.719 0C438.19 0 441.468 2.39318 444.412 4.54199L444.503 4.6084C447.547 6.83063 450.284 8.77823 455.725 8.77832C461.166 8.77832 463.89 6.83104 466.929 4.6084L467.01 4.5498C469.951 2.39802 473.229 0 479.732 0C486.235 0.000105021 489.513 2.39808 492.454 4.5498L492.535 4.6084C495.574 6.83103 498.298 8.77832 503.739 8.77832C509.18 8.77826 511.903 6.83101 514.942 4.6084L515.023 4.5498C517.965 2.39806 521.243 0 527.745 0C534.248 3.0006e-05 537.526 2.39806 540.468 4.5498L540.549 4.6084C543.588 6.83102 546.311 8.77831 551.752 8.77832C557.193 8.77832 559.917 6.83104 562.956 4.6084L563.037 4.5498C565.978 2.39806 569.256 4.50104e-05 575.759 0C582.262 0 585.54 2.39801 588.481 4.5498L588.562 4.6084C591.601 6.83095 594.325 8.77823 599.766 8.77832C605.206 8.77832 607.93 6.83104 610.969 4.6084L611.05 4.5498C613.992 2.39804 617.27 0 623.772 0C630.275 0.000120027 633.553 2.39807 636.495 4.5498L636.576 4.6084C639.615 6.83104 642.338 8.77832 647.779 8.77832C653.22 8.77825 655.943 6.831 658.982 4.6084L659.063 4.5498C662.005 2.39806 665.283 0 671.786 0C678.288 3.00107e-05 681.566 2.39806 684.508 4.5498L684.589 4.6084C687.628 6.83104 690.351 8.77832 695.792 8.77832C701.233 8.77832 703.957 6.83103 706.996 4.6084L707.077 4.5498C710.018 2.39804 713.296 4.50121e-05 719.799 0C726.302 0 729.58 2.39802 732.521 4.5498L732.602 4.6084C735.64 6.83099 738.365 8.77823 743.806 8.77832C749.247 8.77832 751.97 6.83104 755.009 4.6084L755.09 4.5498C758.032 2.39801 761.311 0 767.812 0C774.315 0.000120027 777.593 2.39807 780.535 4.5498L780.616 4.6084C783.655 6.83104 786.378 8.77832 791.819 8.77832C797.26 8.77823 799.985 6.83099 803.023 4.6084L803.104 4.5498C806.045 2.39808 809.323 0 815.826 0C822.329 4.5009e-05 825.607 2.39806 828.548 4.5498L828.629 4.6084C831.668 6.83104 834.392 8.77832 839.833 8.77832C845.273 8.77832 847.997 6.83104 851.036 4.6084L851.117 4.5498C854.059 2.39806 857.336 3.00072e-05 863.839 0C870.342 0 873.621 2.39801 876.562 4.5498L876.642 4.6084C879.682 6.831 882.405 8.77825 887.846 8.77832C893.287 8.77832 896.01 6.83104 899.049 4.6084L899.13 4.5498C902.072 2.39803 905.351 0 911.854 0C918.355 0.000120041 921.633 2.3981 924.575 4.5498L924.656 4.6084C927.695 6.83104 930.418 8.77832 935.859 8.77832C941.3 8.77823 944.025 6.83099 947.063 4.6084L947.144 4.5498C950.085 2.39804 953.363 0 959.866 0C966.369 4.50109e-05 969.647 2.39804 972.588 4.5498L972.669 4.6084C975.708 6.83104 978.432 8.77832 983.873 8.77832C989.314 8.77831 992.037 6.83103 995.076 4.6084L995.157 4.5498C998.099 2.39805 1001.38 3.0022e-05 1007.88 0C1014.38 0 1017.66 2.39805 1020.6 4.5498L1020.68 4.6084C1023.72 6.83098 1026.45 8.77823 1031.89 8.77832C1037.33 8.77832 1040.05 6.83136 1043.1 4.6084L1043.17 4.55664C1046.12 2.40202 1049.41 0 1055.94 0Z"/>
</svg>
